<svg height="145" viewBox="0 0 666 145" width="666" xmlns="http://www.w3.org/2000/svg" xmlns:xlink="http://www.w3.org/1999/xlink"><mask id="a" fill="#fff"><path d="m0 .934h566.418v144.006h-566.418z" fill="#fff" fill-rule="evenodd"/></mask><g fill="none" fill-rule="evenodd"><path d="m435.202 109.385c-6.701-10.844-10.297-23.352-10.297-36.418s3.596-25.574 10.297-36.418zm117.538 1.308v-75.452c7.233 11.14 11.126 24.131 11.126 37.726 0 13.596-3.893 26.587-11.126 37.726zm-25.208 26.25c.348.164.711.276 1.113.246.347-.026.633-.144.767-.501.022-.059.067-.124.12-.155.362-.208.452-.452.292-.818-.003-.007-.007-.012-.01-.018.004-.002.008-.004.011-.006.143.138.259.249.265.255.234-.156.471-.304.424-.646 5.341-3.107 10.321-6.912 14.807-11.398 1.721-1.721 3.343-3.516 4.867-5.376v22.04h-30.851c2.805-1.033 5.539-2.244 8.195-3.623zm-89.779-19.477c1.764 2.235 3.653 4.391 5.698 6.436 4.461 4.462 9.415 8.253 14.724 11.352.003.104.028.213.108.318.225.304.503.569.755.853.076.084.171.163.213.264.145.351.428.469.773.5.425.038.803-.091 1.168-.27 2.67 1.39 5.421 2.608 8.241 3.647h-31.68zm5.841-91.885c.548-.586 1.091-1.175 1.661-1.744 13.123-13.124 30.572-20.351 49.13-20.351 18.56 0 36.008 7.227 49.131 20.351.569.569 1.113 1.158 1.661 1.744zm106.594 5.971v17.843c-.103-.101-.278-.141-.415-.181-.513-.149-1.038-.254-1.559-.378-.068-.017-.151-.018-.199-.058-.588-.495-1.33-.331-1.999-.478-.465-.101-.929-.211-1.396-.299-.625-.119-1.251-.296-1.88-.313-1.326-.035-2.653.033-3.979.029-.486-.001-.973-.084-1.459-.128-1.516-.137-3.036-.257-4.552-.413-1.225-.127-2.447-.3-3.672-.447-1.868-.224-3.74-.197-5.612-.079-1.753.111-3.502.183-5.259.003-1.121-.115-2.254-.12-3.38-.179-.427-.023-.853-.058-1.3-.146.473-.233.945-.471 1.422-.698 1.52-.723 2.892-1.688 4.296-2.603 1.259-.82 2.536-1.611 3.809-2.407.145-.091.318-.144.484-.191 2.323-.654 4.496-1.657 6.623-2.776 1.927-1.014 3.872-1.993 5.803-2.997.392-.203.762-.446 1.144-.669.09-.052.179-.119.278-.139.923-.187 1.848-.369 2.774-.542.157-.029.329-.025.487.003.665.117 1.264-.091 1.859-.344.178-.076.366-.134.556-.177.975-.219 1.956-.42 2.93-.651.243-.057.49-.165.688-.313.108-.08.119-.293.173-.445-.146-.043-.3-.139-.437-.119-.713.104-1.422.238-2.133.361-.067.011-.135.017-.218-.016.456-.268.919-.527 1.368-.808.395-.246.8-.446 1.254-.573.209-.058.403-.26.544-.443.063-.082.078-.16.053-.222l.023-.006-.056-.196c.153-.05.304-.1.414-.197.119-.103.191-.36.149-.511-.034-.124-.262-.203-.413-.282-.086-.045-.241-.015-.282-.075-.052-.076-.107-.122-.164-.159h.494c.947 1.118 1.869 2.252 2.739 3.419zm0 18.828c-.399-.162-.808-.298-1.213-.443-.097-.035-.191-.074-.276-.148.233.054.466.109.702.159.079.016.163.033.242.025.193-.018.423-.017.545-.155zm-6.672 71.718c-.504.504-1.026.982-1.543 1.469-2.372 2.223-4.89 4.271-7.56 6.132-2.102 1.466-4.28 2.811-6.53 4.039-.285.157-.564.329-.862.458-.119.052-.301.052-.42-.002-.815-.37-1.618-.764-2.43-1.142-.295-.138-.591-.299-.903-.367-1.011-.222-1.481-.969-1.784-1.838-.725-2.076-1.395-4.172-2.117-6.248-.861-2.474-1.762-4.933-2.629-7.405-.895-2.551-2.2-4.901-3.526-7.243-.123-.217-.216-.505-.187-.744.122-1.054.036-2.089-.396-3.048-.572-1.273-.912-2.613-1.273-3.949-1.564-5.776-3.122-11.553-4.66-17.336-.145-.543-.14-1.127-.184-1.694-.173-2.241-.526-4.446-1.474-6.505-.617-1.341-1.309-2.649-1.996-3.958-.5-.956-.779-1.947-.818-3.035-.105-2.879.4-5.68 1.001-8.472.033-.154.119-.301.198-.441.636-1.129.797-2.31.458-3.571-.084-.31-.1-.677-.019-.984.206-.772.417-1.556.751-2.278.556-1.203 1.929-1.893 3.246-1.803 2.162.148 4.324.065 6.488-.016 3.108-.117 6.14-.758 9.204-1.18.652-.09 1.342.062 2.012.132 1.592.167 3.182.135 4.775.008 1.669-.134 3.339-.274 5.009-.392.882-.062 1.768-.07 2.649-.132.361-.025.643.086.873.337.793.87 1.823 1.115 2.942 1.116.488 0 .996-.116 1.461-.018.787.166 1.565.417 2.312.719.399.161.751.454 1.204.334.176-.047.394-.193.457-.349.091-.222-.115-.368-.317-.469-.651-.326-1.3-.66-1.974-1.004 1.262-.017 2.399.31 3.468.889.301.162.614.261.93.091.136-.072.288-.235.304-.371.012-.108-.15-.288-.276-.349-.588-.281-1.19-.53-1.787-.794-.146-.065-.29-.14-.425-.273.107.008.221-.008.318.026.699.245 1.389.515 2.094.741.19.06.405.054.608.037v63.166c-2.018 2.706-4.242 5.286-6.672 7.716zm-50.359 18.468c.037-.023.073-.048.109-.073.669-.459.937-1.033.665-1.803-.289-.817-.483-1.612-.376-2.491.042-.345-.15-.719-.229-1.082-.064-.29-.17-.584-.165-.875.036-2.129.059-4.26.16-6.386.088-1.87.302-3.728.587-5.583.199-1.301.183-2.649.125-3.969-.061-1.356-.256-2.709-.459-4.054-.114-.755-.367-1.489-.545-2.236-.037-.153-.077-.334-.029-.472.722-2.028.861-4.131.864-6.262.002-1.907.046-3.816.143-5.721.156-3.045.333-6.088.263-9.139-.017-.757-.04-1.513-.056-2.269-.004-.156-.036-.375.216-.331.072.013.157.226.154.346-.05 2.198-.163 4.396-.157 6.594.004 1.602.171 3.204.245 4.807.049 1.046.062 2.093.088 3.14.045 1.733.013 3.473.159 5.197.1 1.161.459 2.297.686 3.449.045.226.071.488.004.701-.54 1.71-.809 3.465-.931 5.247-.028.418-.058.836-.068 1.254-.038 1.689.059 3.36.331 5.04.266 1.647.342 3.331.43 5.002.095 1.789.119 3.582.146 5.374.006.374-.068.762-.18 1.122-.21.68-.301 1.355-.189 2.064.031.2-.044.425-.106.627-.09.3-.25.582-.315.886-.156.734-.043 1.393.653 1.836.03.018.057.041.085.06zm-2.891-112.433c-.558.879-.858 1.859-1.03 2.889-.062.368-.124.735-.179 1.103-.034.233-.09.424-.295.596-.136.114-.22.374-.211.564.03.661.087 1.323.187 1.976.031.205.177.394.312.621l-.022.039.069.041c.004.007.009.013.013.02.002-.004.004-.006.006-.01l.468.272c.076.431.152.862.236 1.291.168.85.523 1.61 1.16 2.225.105.103.181.269.208.418.135.755 0 1.497-.077 2.251-.108 1.069-.83 1.515-1.635 1.938-.216.113-.437.235-.671.29-.162.038-.373.013-.521-.062-.883-.446-1.734-.962-2.634-1.365-1.528-.683-3.126-1.126-4.81-1.247-.393-.029-.787-.185-1.162-.33-2.975-1.149-5.951-2.297-8.914-3.476-.755-.3-1.478-.685-2.198-1.066-2.781-1.47-5.696-2.584-8.733-3.411-1.491-.406-2.931-.995-4.408-1.456-1.187-.371-2.387-.714-3.598-.997-.866-.202-1.529-.694-2.207-1.216-.474-.364-1.015-.645-1.535-.949-.549-.323-1.103-.635-1.657-.949zm53.312.525c.073-.07.152-.171.161-.264.006-.084.013-.174.017-.261h2.645c-.03.01-.059.018-.089.03-.928.339-1.859.668-2.785 1.013-.049.019-.095.047-.14.077l-.008-.033-.511.113c.246-.211.473-.45.71-.675zm-45.655 11.344c.008-.114.074-.259.162-.325.538-.401.814-.964.941-1.589.118-.583.225-1.169.33-1.755l.541-.317-.003-.005c.095-.073.165-.175.21-.292.115-.299.182-.622.234-.94.065-.39.094-.786.135-1.179.036-.354.028-.689-.23-.987-.085-.096-.108-.284-.095-.423.127-1.334-.232-2.569-.794-3.748-.051-.107-.123-.206-.184-.309h43.402c-.248.149-.498.293-.748.437-.292.17-.579.357-.893.476-.768.291-1.397.782-2.005 1.311-.438.381-.926.68-1.494.798-2.426.504-4.734 1.382-7.07 2.176-1.223.416-2.476.742-3.714 1.111-2.131.634-4.142 1.563-6.091 2.609-1.693.909-3.505 1.504-5.279 2.204-2.047.807-4.091 1.622-6.121 2.47-.536.223-1.079.242-1.629.315-2.142.281-4.129 1.007-5.99 2.102-.375.22-.793.367-1.191.549-.569-.311-1.145-.611-1.707-.936-.804-.466-.721-1.302-.778-2.047-.044-.564.023-1.139.061-1.706zm-52.751-11.751c.133.278.336.524.522.773.061.081.154.143.241.201.058.039.113.079.17.119l-.527-.105c-.024-.016-.049-.029-.076-.039-.973-.362-1.95-.714-2.925-1.067h2.585c.004.04-.003.088.01.118zm33.71 112.315c-2.009-.452-3.997-.992-5.959-1.642-1.898-.629-3.758-1.38-5.634-2.077-.118-.044-.231-.105-.435-.198.455.062.813.146 1.172.151.484.007.978-.003 1.453-.087.741-.132 1.141-.627 1.241-1.367.033-.254.062-.508.085-.763.041-.441.101-.868.339-1.267.131-.218.237-.514.207-.757-.156-1.281.293-2.42.811-3.526.662-1.41 1.363-2.805 2.128-4.162.338-.597.861-1.095 1.328-1.613 1.637-1.821 2.828-3.917 3.836-6.133.817-1.795 1.45-3.653 2.073-5.521.391-1.176.978-2.287 1.476-3.426.103-.235.198-.472.295-.708.139-.333.249-.68.419-.995.42-.778.866-1.539 1.302-2.308.036.002.072.005.108.008.08.561.148 1.125.244 1.683.126.722.223 1.456.43 2.155.228.768.229 1.537.197 2.316-.06 1.523-.16 3.044-.195 4.568-.06 2.596.073 5.188.429 7.76.14 1.022.409 2.031.684 3.028.632 2.289 1.304 4.566 1.961 6.848.251.872.513 1.742.755 2.617.04.146.026.317-.002.469-.123.686-.254 1.369-.397 2.05-.04.188-.1.387-.207.542-.464.67-.956 1.319-1.424 1.987-.098.14-.213.253-.327.368zm22.732 0c-.492-.436-.925-.943-1.325-1.501-.711-.994-1.104-2.072-1.197-3.258-.038-.496.048-1.024.181-1.508.672-2.459 1.348-4.918 2.083-7.359.446-1.485.925-2.958 1.124-4.5.103-.807.199-1.619.23-2.43.075-1.93.15-3.861.144-5.792-.005-1.64-.138-3.278-.181-4.917-.012-.423.081-.852.155-1.274.194-1.122.403-2.241.606-3.361.03-.168.061-.337.091-.506.035-.006.069-.012.104-.019.389.725.781 1.449 1.165 2.176 1.166 2.208 2.112 4.503 2.883 6.882.929 2.866 2.133 5.621 3.856 8.111.667.963 1.464 1.835 2.203 2.749.101.126.216.247.292.387.752 1.38 1.533 2.745 2.229 4.153.41.828.722 1.713 1.001 2.595.118.373.008.813.063 1.213.049.36.19.706.276 1.062.103.425.193.852.283 1.28.019.09.006.187.018.278.162 1.267.716 1.779 2.043 1.8.598.01 1.199-.087 1.848-.139-.505.211-.975.416-1.451.606-3.444 1.377-6.976 2.467-10.592 3.272zm-60.292-112.433h.722c-.051.03-.105.046-.153.1-.064.073-.193.126-.293.126-.261-.003-.432.104-.487.353-.062.272.094.448.318.557.155.074.329.11.495.163-.247.015-.328.166-.195.348.129.177.312.391.504.43.555.112.997.425 1.465.699.398.233.799.459 1.178.752-.73-.127-1.46-.255-2.19-.382-.08-.014-.166-.048-.24-.033-.116.025-.292.06-.32.136-.037.103-.002.304.078.366.197.151.423.299.661.357 1.041.249 2.089.464 3.134.695.122.027.247.059.36.113.629.303 1.274.413 1.985.415.804.004 1.609.199 2.409.337.527.09 1.008.274 1.484.556.96.568 1.98 1.034 2.975 1.543 2.114 1.082 4.213 2.192 6.347 3.234.906.443 1.864.8 2.832 1.09.983.294 1.875.729 2.724 1.293 1.473.979 2.945 1.965 4.457 2.881 1.114.675 2.292 1.243 3.441 1.857.12.065.243.125.356.253-.409.031-.817.07-1.226.092-1.382.076-2.77.098-4.147.231-2.215.213-4.414-.086-6.62-.133-1.761-.037-3.507.129-5.253.354-1.337.173-2.684.27-4.027.403-1.227.122-2.453.269-3.683.358-.668.048-1.345-.015-2.019-.007-1.046.011-2.096.005-3.138.079-.525.037-1.035.256-1.558.352-.719.133-1.448.216-2.168.344-.231.041-.448.159-.67.241-.129.048-.254.11-.387.143-.518.133-1.039.254-1.558.385-.088.022-.192.049-.252.11-.088.093-.211.226-.198.326.014.101.174.254.274.257.409.014.819-.021 1.167-.035-.319.117-.717.265-1.117.412-.163.061-.346.094-.484.191-.118.084-.267.251-.254.365.016.142.157.321.292.386.344.166.656.004.991-.134.702-.288 1.431-.512 2.149-.763.019.049.039.096.058.145-.165.082-.327.171-.495.247-.552.247-1.114.474-1.656.742-.144.071-.34.291-.313.388.042.154.235.336.393.371.222.049.488.02.704-.06.435-.16.833-.426 1.274-.558.54-.162 1.108-.238 1.665-.343.205-.038.414-.051.641-.034-.444.224-.887.45-1.332.672-.292.146-.593.275-.874.439-.095.054-.199.196-.192.291.007.094.131.218.232.261.378.16.747.079 1.116-.072.689-.279 1.373-.587 2.083-.793.387-.111.829-.058 1.244-.04 1.029.045 2.06.091 2.992-.449.327-.191.615-.456.9-.711.235-.208.485-.288.796-.27 1.254.075 2.511.117 3.764.204 1.647.115 3.291.303 4.939.377 1.195.054 2.409.083 3.589-.073 1.46-.193 2.868-.061 4.294.194 2.291.411 4.588.785 6.924.837 1.605.036 3.21.099 4.815.117.685.008 1.371-.055 2.055-.113 1.124-.095 2.587.783 3.088 1.982.321.767.515 1.589.732 2.396.047.172-.026.39-.084.575-.41 1.309-.247 2.551.409 3.743.078.141.156.292.183.447.461 2.626.918 5.249.889 7.933-.018 1.571-.488 2.99-1.186 4.369-.677 1.338-1.441 2.657-1.909 4.069-.467 1.413-.731 2.919-.87 4.405-.151 1.613-.498 3.165-.911 4.717-.86 3.228-1.701 6.461-2.563 9.69-.699 2.621-1.408 5.238-2.129 7.852-.132.481-.32.951-.527 1.405-.517 1.13-.706 2.301-.578 3.539.023.232-.063.506-.175.719-.492.924-1.006 1.837-1.523 2.749-.958 1.688-1.664 3.489-2.311 5.309-1.045 2.94-2.048 5.894-3.031 8.854-.595 1.791-1.189 3.579-2.12 5.23-.086.152-.218.318-.369.387-1.219.55-2.455 1.062-3.669 1.622-.408.187-.717.154-1.097-.074-1.476-.889-2.995-1.706-4.457-2.615-2.489-1.547-4.871-3.252-7.096-5.16-.215-.18-.425-.367-.636-.55-.584-.507-1.166-1.016-1.742-1.534-.73-.672-1.456-1.353-2.162-2.059-2.774-2.774-5.267-5.751-7.502-8.881v-80.5c1.121-1.57 2.311-3.099 3.569-4.584zm-3.569.336v-.336h.263c-.089.111-.174.224-.263.336zm114.987 86.733c8.876-12.209 13.678-26.849 13.678-42.235 0-15.384-4.802-30.026-13.678-42.234v-5.152h-4.124c-1.06-1.21-2.148-2.401-3.295-3.549-13.606-13.605-31.695-21.098-50.936-21.098-19.24 0-37.329 7.493-50.934 21.098-1.149 1.148-2.237 2.339-3.296 3.549h-4.953v6.327c-8.341 11.969-12.85 26.164-12.85 41.059s4.509 29.091 12.85 41.059v29.093h42.799c5.312 1.231 10.797 1.881 16.384 1.881 5.588 0 11.072-.65 16.385-1.881h41.97z" fill="#00a3da" mask="url(#a)"/><g fill="#777776"><path d="m54.315 50.67v47.879h-7.564v-22.204h-39.186v22.204h-7.565v-47.879h7.565v21.115h39.186v-21.115z" mask="url(#a)"/><path d="m112.6 50.67h7.565v33.532c0 6.08-1.712 10.074-5.132 11.979-3.42 1.906-10.6 2.858-21.532 2.858-10.248 0-17.21-.917-20.893-2.753s-5.525-5.326-5.525-10.47v-35.146h7.559v33.532c0 4.537 1.035 7.384 3.093 8.541 2.063 1.158 7.138 1.737 15.223 1.737 8.775 0 14.241-.568 16.404-1.702 2.163-1.133 3.238-3.993 3.238-8.576z"/><path d="m206.447 50.67v47.879h-7.565v-41.18l.052-1.438.047-1.438h-.193l-.59 1.122c-.298.561-.491.924-.59 1.088l-1.275 2.244-22.835 39.602h-7.564l-22.881-39.146-1.328-2.21-.59-1.122c-.164-.257-.363-.619-.591-1.087h-.193l.047 1.298.047 1.333v40.934h-7.559v-47.879h13.113l17.871 30.972 2.847 5.015 1.426 2.492 1.374 2.49h.199l1.374-2.49c.69-1.194 1.146-2.024 1.374-2.492l2.9-4.98 17.777-31.007z"/><path d="m258.155 84.343-14.878-29.254-14.679 29.254zm2.21 4.068h-33.931l-5.156 10.138h-8.003l24.553-47.879h10.605l25.044 47.879h-7.903z"/><path d="m337.614 50.67v47.879h-12.429l-28.084-32.586-4.571-5.367-4.514-5.332h-.198l.047 1.789.052 1.825v39.671h-7.565v-47.879h12.376l24.507 28.552 6.384 7.506 3.192 3.718 3.139 3.753h.199l-.053-1.789-.046-1.824v-39.916z"/></g><path d="m361.285 58.316v12.347h31.428v6.699h-31.428v13.539h33.439v7.648h-46.16v-47.879h45.868v7.646z" fill="#00a3da"/><path d="m626.476 82.659-11.593-24.939-11.393 24.939zm2.946 6.7h-28.926l-4.173 9.19h-13.458l22.296-47.879h19.105l22.636 47.879h-13.212z" fill="#777776"/><path d="m652.696 98.549h12.72v-47.879h-12.72z" fill="#777776"/></g></svg>